<svg xmlns="http://www.w3.org/2000/svg" viewBox="0 0 5277 1761" >
				<rect width="24" height="1761" fill="none"/>
				<g clip-path="url(#clip0)">
					<path d="M4572 771H1460V976H4572V771Z" fill="#D7DA1C"/>
<path d="M4924.5 1226C5119.18 1226 5277 1068.18 5277 873.5C5277 678.82 5119.18 521 4924.5 521C4729.82 521 4572 678.82 4572 873.5C4572 1068.18 4729.82 1226 4924.5 1226Z" fill="#FF7D05"/>
<path d="M4925 1162C5084.61 1162 5214 1032.61 5214 873C5214 713.39 5084.61 584 4925 584C4765.39 584 4636 713.39 4636 873C4636 1032.61 4765.39 1162 4925 1162Z" fill="#D7DA1C"/>
<path d="M4902 771H4433V976H4902V771Z" fill="#D7DA1C"/>
<path d="M352.5 1226C547.18 1226 705 1068.18 705 873.5C705 678.82 547.18 521 352.5 521C157.82 521 0 678.82 0 873.5C0 1068.18 157.82 1226 352.5 1226Z" fill="white"/>
<path d="M1125.5 1226C1320.18 1226 1478 1068.18 1478 873.5C1478 678.82 1320.18 521 1125.5 521C930.82 521 773 678.82 773 873.5C773 1068.18 930.82 1226 1125.5 1226Z" fill="#D7DA1C"/>
<path d="M947 761H478V966H947V761Z" fill="white"/>
<path d="M5015 836H4433V910H5015V836Z" fill="white"/>
<path d="M1126 1162C1285.61 1162 1415 1032.61 1415 873C1415 713.39 1285.61 584 1126 584C966.39 584 837 713.39 837 873C837 1032.61 966.39 1162 1126 1162Z" fill="white"/>
<path d="M4925 1075C5036.56 1075 5127 984.562 5127 873C5127 761.438 5036.56 671 4925 671C4813.44 671 4723 761.438 4723 873C4723 984.562 4813.44 1075 4925 1075Z" fill="white"/>
<path d="M2121.85 1651.2C2255.98 1792.31 2479.1 1797.97 2620.2 1663.85C2761.31 1529.72 2766.97 1306.6 2632.85 1165.5C2498.72 1024.39 2275.6 1018.73 2134.5 1152.85C1993.39 1286.98 1987.73 1510.1 2121.85 1651.2Z" fill="#FF7D05"/>
<path d="M2168.59 1607.48C2278.55 1723.16 2461.48 1727.8 2577.17 1617.84C2692.85 1507.88 2697.49 1324.95 2587.53 1209.26C2477.57 1093.58 2294.64 1088.94 2178.95 1198.9C2063.27 1308.86 2058.63 1491.79 2168.59 1607.48Z" fill="#D7DA1C"/>
<path d="M2436.14 1321.42L1958.77 819.204L1810.18 960.438L2287.55 1462.66L2436.14 1321.42Z" fill="#D7DA1C"/>
<path d="M2466.88 1448.11L1904.55 856.505L1850.91 907.487L2413.24 1499.09L2466.88 1448.11Z" fill="white"/>
<path d="M2231.65 1547.54C2308.51 1628.4 2436.37 1631.64 2517.23 1554.78C2598.09 1477.92 2601.33 1350.06 2524.47 1269.2C2447.61 1188.34 2319.75 1185.1 2238.89 1261.96C2158.03 1338.82 2154.79 1466.68 2231.65 1547.54Z" fill="white"/>
<path d="M4175.39 610.37C4317.39 477.193 4324.54 254.117 4191.37 112.116C4058.19 -29.8855 3835.11 -37.0389 3693.11 96.138C3551.11 229.315 3543.96 452.391 3677.13 594.392C3810.31 736.393 4033.39 743.547 4175.39 610.37Z" fill="#FF7D05"/>
<path d="M4131.98 563.346C4248.4 454.159 4254.26 271.269 4145.08 154.848C4035.89 38.4272 3853 32.5622 3736.58 141.748C3620.16 250.935 3614.3 433.825 3723.48 550.246C3832.67 666.667 4015.56 672.532 4131.98 563.346Z" fill="#D7DA1C"/>
<path d="M3847.72 293.882L3325.05 784.077L3465.29 933.605L3987.96 443.411L3847.72 293.882Z" fill="#D7DA1C"/>
<path d="M3974.61 263.991L3352.98 846.996L3403.6 900.972L4025.24 317.968L3974.61 263.991Z" fill="white"/>
<path d="M4072.46 499.887C4153.84 423.57 4157.94 295.737 4081.62 214.363C4005.3 132.989 3877.47 128.89 3796.1 205.207C3714.72 281.524 3710.62 409.357 3786.94 490.731C3863.26 572.105 3991.09 576.204 4072.46 499.887Z" fill="white"/>
<path d="M2383.5 706C2578.18 706 2736 548.18 2736 353.5C2736 158.82 2578.18 1 2383.5 1C2188.82 1 2031 158.82 2031 353.5C2031 548.18 2188.82 706 2383.5 706Z" fill="#FF7D05"/>
<path d="M3933.5 1760C4128.18 1760 4286 1602.18 4286 1407.5C4286 1212.82 4128.18 1055 3933.5 1055C3738.82 1055 3581 1212.82 3581 1407.5C3581 1602.18 3738.82 1760 3933.5 1760Z" fill="#FF7D05"/>
<path d="M4433 836H1396V910H4433V836Z" fill="white"/>
				</g>
			</svg>